# xmcd
#
# Track frame offsets:
#	150
#	14475
#	28057
#	42155
#	55002
#	69187
#	81985
#	95542
#	108400
#	121620
#	134042
#	146737
#	158812
#	169685
#	180972
#	193940
#	205545
#	218522
#	230342
#	242642
#	254632
#	268155
#
# Disc length: 3725 seconds
# Revision: 1
# Processed by: cddbd v1.5.2PL0 Copyright (c) Steve Scherf et al.
# Submitted via: dBpowerAMP V12.0
#
DISCID=330e8b16
DTITLE=Various Artist - Queen Of The Blues
DYEAR=1929
DGENRE=Blues
TTITLE0=Kansas Joe McCoy and Memphis Minnie - When the Levee Breaks
TTITLE1=Memphis Minnie - Where is my Good Man?
TTITLE2=Kansas Joe McCoy and Memphis Minnie - Joliet Bound
TTITLE3=Memphis Minnie - Drunken Barrel House Blues
TTITLE4=Memphis Minnie - He's In the Ring
TTITLE5=Memphis Minnie - Joe Louis Strut
TTITLE6=Memphis Minnie - New Orleans Stop Time
TTITLE7=Memphis Minnie - Blues Everywhere
TTITLE8=Memphis Minnie - Please Don't Stop Him
TTITLE9=Memphis Minnie - Has Anyone Seen My Man?
TTITLE10=Memphis Minnie - I'd Rather See Him Dead
TTITLE11=Memphis Minnie - Poor And Wandering Woman Blues
TTITLE12=Memphis Minnie - Call the Fire Wagon
TTITLE13=Memphis Minnie - Bad Outside Friends
TTITLE14=Memphis Minnie - Lonesome Shack
TTITLE15=Memphis Minnie - Pig Meat on the Line
TTITLE16=Ernest Lawlars and Memphis Minnie - Black Rat Swing
TTITLE17=Memphis Minnie - Looking the World Over
TTITLE18=Memphis Minnie - When You Love Me
TTITLE19=Memphis Minnie - Love Come and Go
TTITLE20=Memphis Minnie - Fashion Plate Daddy
TTITLE21=Memphis Minnie - Killer Diller Blues
EXTD=
EXTT0=
EXTT1=
EXTT2=
EXTT3=
EXTT4=
EXTT5=
EXTT6=
EXTT7=
EXTT8=
EXTT9=
EXTT10=
EXTT11=
EXTT12=
EXTT13=
EXTT14=
EXTT15=
EXTT16=
EXTT17=
EXTT18=
EXTT19=
EXTT20=
EXTT21=
PLAYORDER=
